{"title":"National.Geographic.Wild.Born.Predator.WEBRip.P2P4FREE","uid":8537996,"size":227451747,"categoryP":"video","categoryS":"tv_shows","magnet":"?xt=urn:btih:22622331d32cafda6ce5be0491fe29b606d5943a&amp;dn=National.Geographic.Wild.Born.Predator.WEBRip.P2P4FREE&amp;tr=udp%3A%2F%2Ftracker.openbittorrent.com%3A80&amp;tr=udp%3A%2F%2Fopen.demonii.com%3A1337&amp;tr=udp%3A%2F%2Ftracker.coppersurfer.tk%3A6969&amp;tr=udp%3A%2F%2Fexodus.desync.com%3A6969","seeders":1,"leechers":0,"uploader":"P2P4FREE","files":1,"time":1370310116,"description":"General\n------------------------------------------------------------------\nFormat                                   : MPEG-4\nFormat profile                           : Base Media / Version 2\nCodec ID                                 : mp42\nFile size                                : 217 MiB\nDuration                                 : 45mn 9s\nOverall bit rate mode                    : Variable\nOverall bit rate                         : 672 Kbps\n\nVideo\n------------------------------------------------------------------\nID                                       : 1\nFormat                                   : AVC\nFormat/Info                              : Advanced Video Codec\nFormat profile                           : &lt;a class=&quot;__cf_email__&quot; href=&quot;/cdn-cgi/l/email-protection&quot; data-cfemail=&quot;8bc9eaf8eee7e2e5eecbc7b8a5bb&quot;&gt;[email&amp;#160;protected]&lt;/a&gt;&lt;script cf-hash='f9e31' type=&quot;text/javascript&quot;&gt;\n/* &lt;![CDATA[ */!function(){try{var t=&quot;currentScript&quot;in document?document.currentScript:function(){for(var t=document.getElementsByTagName(&quot;script&quot;),e=t.length;e--;)if(t[e].getAttribute(&quot;cf-hash&quot;))return t[e]}();if(t&amp;&amp;t.previousSibling){var e,r,n,i,c=t.previousSibling,a=c.getAttribute(&quot;data-cfemail&quot;);if(a){for(e=&quot;&quot;,r=parseInt(a.substr(0,2),16),n=2;a.length-n;n+=2)i=parseInt(a.substr(n,2),16)^r,e+=String.fromCharCode(i);e=document.createTextNode(e),c.parentNode.replaceChild(e,c)}}}catch(u){}}();/* ]]&gt; */&lt;/script&gt;\nFormat settings, CABAC                   : No\nFormat settings, ReFrames                : 1 frame\nCodec ID                                 : avc1\nCodec ID/Info                            : Advanced Video Coding\nDuration                                 : 45mn 9s\nBit rate                                 : 573 Kbps\nMaximum bit rate                         : 1 801 Kbps\nWidth                                    : 640 pixels\nHeight                                   : 360 pixels\nDisplay aspect ratio                     : 16:9\nFrame rate mode                          : Constant\nFrame rate                               : 29.970 fps\nColor space                              : YUV\nChroma subsampling                       : 4:2:0\nBit depth                                : 8 bits\nScan type                                : Progressive\nBits/(Pixel*Frame)                       : 0.083\nStream size                              : 185 MiB (85%)\n\nAudio\n------------------------------------------------------------------\nID                                       : 2\nFormat                                   : AAC\nFormat/Info                              : Advanced Audio Codec\nFormat profile                           : LC\nCodec ID                                 : 40\nDuration                                 : 45mn 9s\nBit rate mode                            : Variable\nBit rate                                 : 96.0 Kbps\nMaximum bit rate                         : 102 Kbps\nChannel(s)                               : 2 channels\nChannel positions                        : Front: L R\nSampling rate                            : 44.1 KHz\nCompression mode                         : Lossy\nStream size                              : 31.0 MiB (14%)\n------------------------------------------------------------------\n\nSCREENS\n------------------------------------------------------------------ &lt;a href=&quot;\nhttp://share.pho.to/2StYW/original&quot; rel=&quot;nofollow&quot; target=&quot;_NEW&quot;&gt;\nhttp://share.pho.to/2StYW/original&lt;/a&gt; &lt;a href=&quot;\nhttp://share.pho.to/2StYL/original&quot; rel=&quot;nofollow&quot; target=&quot;_NEW&quot;&gt;\nhttp://share.pho.to/2StYL/original&lt;/a&gt; &lt;a href=&quot;\nhttp://share.pho.to/2StYr/original&quot; rel=&quot;nofollow&quot; target=&quot;_NEW&quot;&gt;\nhttp://share.pho.to/2StYr/original&lt;/a&gt; &lt;a href=&quot;\nhttp://share.pho.to/2Stad/original&quot; rel=&quot;nofollow&quot; target=&quot;_NEW&quot;&gt;\nhttp://share.pho.to/2Stad/original&lt;/a&gt; &lt;a href=&quot;\nhttp://share.pho.to/2Stac/original&quot; rel=&quot;nofollow&quot; target=&quot;_NEW&quot;&gt;\nhttp://share.pho.to/2Stac/original&lt;/a&gt; &lt;a href=&quot;\nhttp://share.pho.to/2Staf/original&quot; rel=&quot;nofollow&quot; target=&quot;_NEW&quot;&gt;\nhttp://share.pho.to/2Staf/original&lt;/a&gt; &lt;a href=&quot;\nhttp://share.pho.to/2Stan/original&quot; rel=&quot;nofollow&quot; target=&quot;_NEW&quot;&gt;\nhttp://share.pho.to/2Stan/original&lt;/a&gt; &lt;a href=&quot;\nhttp://share.pho.to/2Star/original&quot; rel=&quot;nofollow&quot; target=&quot;_NEW&quot;&gt;\nhttp://share.pho.to/2Star/original&lt;/a&gt;\n------------------------------------------------------------------\n\nEnjoy ;)","torrent":{"xt":"urn:btih:22622331d32cafda6ce5be0491fe29b606d5943a","amp;dn":"National.Geographic.Wild.Born.Predator.WEBRip.P2P4FREE","amp;tr":["udp%3A%2F%2Ftracker.openbittorrent.com%3A80","udp%3A%2F%2Fopen.demonii.com%3A1337","udp%3A%2F%2Ftracker.coppersurfer.tk%3A6969","udp%3A%2F%2Fexodus.desync.com%3A6969"],"infoHash":"22622331d32cafda6ce5be0491fe29b606d5943a","infoHashBuffer":{"type":"Buffer","data":[34,98,35,49,211,44,175,218,108,229,190,4,145,254,41,182,6,213,148,58]},"announce":[],"urlList":[]}}